<svg xmlns="http://www.w3.org/2000/svg" viewBox="0 0 775 650" width="24" height="20">
	<defs>
		<clipPath clipPathUnits="userSpaceOnUse" id="cp1">
			<path d="M0 0L775 0L775 650L0 650Z" />
		</clipPath>
	</defs>
	<style>
		tspan { white-space:pre }
		.shp0 { fill: #fb8133 } 
	</style>
	<g id="Page 1" clip-path="url(#cp1)">
		<path id="Path 1" fill-rule="evenodd" class="shp0" d="M774.5 43.75L774.5 506.25C774.48 530.4 754.9 549.98 730.75 550L477.25 550L484.75 587.5L537 587.5C543.9 587.5 549.5 593.1 549.5 600L549.5 637.5C549.5 644.4 543.9 650 537 650L237 650C230.1 650 224.5 644.4 224.5 637.5L224.5 600C224.5 593.1 230.1 587.5 237 587.5L289.25 587.5L296.75 550L43.25 550C19.1 549.98 -0.47 530.4 -0.5 506.25L-0.5 43.75C-0.47 19.6 19.1 0.03 43.25 0L730.75 0C754.9 0.03 774.48 19.6 774.5 43.75ZM249.5 612.5L249.5 625L524.5 625L524.5 612.5L249.5 612.5ZM459.25 587.5L451.75 550L322.25 550L314.75 587.5L459.25 587.5ZM749.5 475L24.5 475L24.5 506.25C24.51 516.6 32.9 524.99 43.25 525L730.75 525C741.1 524.99 749.49 516.6 749.5 506.25L749.5 475ZM749.5 43.75C749.49 33.4 741.1 25.01 730.75 25L43.25 25C32.9 25.01 24.51 33.4 24.5 43.75L24.5 450L749.5 450L749.5 43.75ZM412 500C412 506.9 406.4 512.5 399.5 512.5L374.5 512.5C367.6 512.5 362 506.9 362 500C362 493.1 367.6 487.5 374.5 487.5L399.5 487.5C406.4 487.5 412 493.1 412 500Z" />
	</g>
</svg>