<svg xmlns="http://www.w3.org/2000/svg" viewBox="0 0 1536 1536" width="21" height="21">
	<style>
		tspan { white-space:pre }
		.shp0 { fill: #fb8133 } 
	</style>
	<g id="Layer 1">
		<path id="&lt;Compound Path&gt;" fill-rule="evenodd" class="shp0" d="M1536 192L1536 1024C1536 1041.66 1521.66 1056 1504 1056C1486.34 1056 1472 1041.66 1472 1024L1472 352L64 352L64 1280C64 1332.93 107.07 1376 160 1376L928 1376C945.66 1376 960 1390.34 960 1408C960 1425.66 945.66 1440 928 1440L160 1440C71.81 1440 0 1368.19 0 1280L0 192C0 103.81 71.81 32 160 32L1376 32C1464.19 32 1536 103.81 1536 192ZM1472 288L1472 192C1472 139.07 1428.93 96 1376 96L160 96C107.07 96 64 139.07 64 192L64 288L1472 288Z" />
		<path id="&lt;Path&gt;" class="shp0" d="M160 160C177.67 160 192 174.33 192 192C192 209.67 177.67 224 160 224C142.33 224 128 209.67 128 192C128 174.33 142.33 160 160 160Z" />
		<path id="&lt;Path&gt;" class="shp0" d="M288 160C305.67 160 320 174.33 320 192C320 209.67 305.67 224 288 224C270.33 224 256 209.67 256 192C256 174.33 270.33 160 288 160Z" />
		<path id="&lt;Path&gt;" class="shp0" d="M416 160C433.67 160 448 174.33 448 192C448 209.67 433.67 224 416 224C398.33 224 384 209.67 384 192C384 174.33 398.33 160 416 160Z" />
		<path id="&lt;Compound Path&gt;" fill-rule="evenodd" class="shp0" d="M1526.66 1193.34C1535.81 1202.5 1538.56 1216.26 1533.57 1228.22C1528.64 1240.19 1516.93 1248 1504 1248L1364.1 1248L1436.54 1390.91C1444.48 1406.46 1438.4 1425.47 1423.04 1433.6L1297.66 1500.22C1292.93 1502.72 1287.81 1504 1282.62 1504C1279.42 1504 1276.16 1503.49 1273.02 1502.53C1264.9 1499.97 1258.05 1494.27 1254.14 1486.59L1175.62 1333.63L1078.66 1430.59C1069.44 1439.81 1055.81 1442.56 1043.78 1437.5C1031.81 1432.64 1024 1420.93 1024 1408L1024 768C1024 755.07 1031.81 743.36 1043.78 738.43C1055.81 733.5 1069.5 736.26 1078.66 745.34L1526.66 1193.34ZM1426.75 1184L1088 845.25L1088 1330.75L1161.34 1257.41C1167.42 1251.33 1175.62 1248 1184 1248C1185.66 1248 1187.33 1248.13 1188.99 1248.38C1199.1 1249.98 1207.81 1256.32 1212.48 1265.41L1296.26 1428.54L1365.25 1391.87L1283.46 1230.46C1278.4 1220.54 1278.91 1208.7 1284.74 1199.23C1290.56 1189.76 1300.86 1184 1312 1184L1426.75 1184Z" />
	</g>
</svg>