<svg xmlns="http://www.w3.org/2000/svg" viewBox="0 0 1536 1536" width="22" height="22">
	<style>
		tspan { white-space:pre }
		.shp0 { fill: #fb8133 } 
	</style>
	<g id="Capa 1">
		<path id="&lt;Compound Path&gt;" fill-rule="evenodd" class="shp0" d="M1516.15 788.18C1516.85 800.6 1508.97 811.96 1497.12 815.65C1485.21 819.34 1472.29 814.42 1465.88 803.78C1428.8 742.45 1360.45 700.96 1281.68 700.96C1194.15 700.94 1119.32 752.15 1086.29 824.81C1081.88 834.48 1072.24 840.7 1061.62 840.7C1050.95 840.68 1041.32 834.46 1036.95 824.78C995.17 732.63 904.71 665.75 796.88 655.51L796.88 1346.26C796.85 1451.05 711.93 1535.98 607.14 1536C502.35 1535.98 417.43 1451.05 417.4 1346.26C417.4 1331.28 429.54 1319.15 444.5 1319.15C459.47 1319.15 471.61 1331.28 471.61 1346.26C471.61 1383.76 486.75 1417.48 511.31 1442.09C535.92 1466.67 569.63 1481.77 607.14 1481.79C644.65 1481.77 678.37 1466.65 702.97 1442.09C727.52 1417.48 742.67 1383.77 742.67 1346.26L742.67 655.13C633.28 664.22 541.3 731.62 499.09 824.78C494.72 834.47 485.05 840.7 474.43 840.7C463.8 840.7 454.13 834.48 449.72 824.82C416.67 752.15 341.86 700.94 254.32 700.96C175.55 700.94 107.23 742.45 70.13 803.78C63.7 814.42 50.78 819.34 38.89 815.65C27.02 811.97 19.15 800.62 19.86 788.19C41.91 411.52 355.29 112.15 742.65 99.57L742.65 27.11C742.65 12.12 754.79 0 769.75 0C784.71 0 796.86 12.12 796.86 27.11L796.86 99.66C1182.58 113.92 1494.17 412.66 1516.15 788.18ZM449.42 729.57C454.98 626.78 469.89 530.72 492.26 446.07C518.3 347.84 554.13 264.9 598.32 204C608.2 190.43 618.58 178.01 629.38 166.7C352.63 221.24 136.07 435.81 84.64 706.34C130.89 669.15 189.9 646.75 254.31 646.75C331.22 646.77 400.53 678.59 449.42 729.57ZM1031.47 717.96C1025.51 624.1 1011.6 536.57 991.3 459.89C966.62 366.38 932.47 288.93 893.81 235.87C868.08 200.44 840.54 176.19 813.76 163.77C798.45 156.65 783.38 153.18 767.99 153.16C752.61 153.18 737.53 156.65 722.21 163.77C706.89 170.91 691.36 181.79 676.04 196.52C645.37 225.9 615.83 270.64 590.53 327.37C545.77 427.42 514.11 564.2 504.37 718.11C568.25 645.63 662.67 599.8 767.98 599.78C873.26 599.8 967.61 645.59 1031.47 717.96ZM1451.3 706.33C1399.89 435.78 1183.28 221.19 906.48 166.68C940.34 202.09 969.76 249.03 994.93 305.27C1044.59 416.58 1077.51 564.33 1086.48 729.6C1135.36 678.6 1204.71 646.77 1281.66 646.75C1346.06 646.77 1405.08 669.15 1451.3 706.33Z" />
	</g>
</svg>