<svg xmlns="http://www.w3.org/2000/svg" viewBox="0 0 1536 1536" width="21" height="21">
	<style>
		tspan { white-space:pre }
		.shp0 { fill: #fb8133 } 
	</style>
	<g id="Layer 1">
		<g id="&lt;Group&gt;">
			<path id="&lt;Compound Path&gt;" fill-rule="evenodd" class="shp0" d="M1472 864.01L1472 1056.01C1472 1097.68 1445.17 1132.86 1408 1146.12L1408 1344.01C1408 1414.6 1350.59 1472.01 1280 1472.01L192 1472.01C121.41 1472.01 64 1414.6 64 1344.01L64 576.01C64 505.42 121.41 448.01 192 448.01L302.65 448.01L932.66 81.23C961.97 64.17 996.22 59.57 1028.97 68.32C1061.88 77.14 1089.38 98.35 1106.41 128.04L1290.19 449.04C1355.95 454.34 1408 508.91 1408 576.01L1408 773.91C1445.17 787.16 1472 822.35 1472 864.01ZM809.71 448.01L1114.3 270.68L1082.71 215.51L683.37 448.01L809.71 448.01ZM936.91 448.01L1215.82 448.01L1146.09 326.22L936.91 448.01ZM429.85 448.01L556.18 448.01L1050.91 159.97L1050.84 159.85C1042.38 145.07 1028.75 134.51 1012.41 130.14C996.25 125.82 979.34 128.07 964.88 136.54L429.85 448.01ZM1344 1344.01L1344 1152.01L1152 1152.01C1046.13 1152.01 960 1065.89 960 960.01C960 854.14 1046.13 768.01 1152 768.01L1344 768.01L1344 576.01C1344 540.73 1315.28 512.01 1280 512.01L192 512.01C156.72 512.01 128 540.73 128 576.01L128 1344.01C128 1379.29 156.72 1408.01 192 1408.01L1280 1408.01C1315.28 1408.01 1344 1379.29 1344 1344.01ZM1408 864.01C1408 846.35 1393.66 832.01 1376 832.01L1152 832.01C1081.41 832.01 1024 889.42 1024 960.01C1024 1030.6 1081.41 1088.01 1152 1088.01L1376 1088.01C1393.66 1088.01 1408 1073.67 1408 1056.01L1408 864.01Z" />
			<path id="&lt;Path&gt;" class="shp0" d="M1152 896.01C1116.72 896.01 1088 924.73 1088 960.01C1088 995.29 1116.72 1024.01 1152 1024.01C1187.28 1024.01 1216 995.29 1216 960.01C1216 924.73 1187.28 896.01 1152 896.01Z" />
		</g>
	</g>
</svg>