<svg id="Layer_1" data-name="Layer 1" xmlns="http://www.w3.org/2000/svg" xmlns:xlink="http://www.w3.org/1999/xlink" viewBox="0 0 787.2 213.88"><defs><style>.cls-1{fill:#f26722;}.cls-2{fill:url(#linear-gradient);}.cls-3,.cls-4{fill:#fff;}.cls-4{font-size:23.7px;font-family:Poppins-Medium, Poppins;font-weight:500;}</style><linearGradient id="linear-gradient" x1="288.05" y1="112.49" x2="801.44" y2="112.49" gradientUnits="userSpaceOnUse"><stop offset="0" stop-color="#ee2d54"/><stop offset="0.51" stop-color="#f26722"/><stop offset="1" stop-color="#ee2d54"/></linearGradient></defs><title>Finnid white</title><path class="cls-1" d="M14.24,23.29H208V217.1H14.24ZM153.16,75.41a20.87,20.87,0,0,0,2-9.43A36.17,36.17,0,0,0,145,41.1a30.47,30.47,0,0,0-20.27-10c-14.62-1.19-28.81,7-35.53,20.18a67.11,67.11,0,0,0-5.85,18q-4.17,22-7.88,44c-1.12,6.72-3.89,12.13-10.08,15.38a57,57,0,0,1-5.26,2.26c-8.39,3.42-16.83,6.7-25.14,10.29-3.72,1.6-4.8,4.32-3.9,7.85,1.07,4.24,3.79,6.65,7.67,6.47A16.86,16.86,0,0,0,44,154.38c5.13-2,10.16-4.29,15.27-6.35a24.86,24.86,0,0,1,6.23-1.84c7.19-.8,11.66.72,12.4,9.25.64,7.44.25,15,.26,22.45,0,6-.35,12,0,18a17.15,17.15,0,0,0,6.51,12.78,2.76,2.76,0,0,0,1.4.71c2.66.1,5.27.28,7.71-1.39s3.13-2.9,2.58-5.89a108.55,108.55,0,0,1-1.73-11.32c-.59-8-.91-15.94-1.28-23.91-.28-6.06-.45-12.13-.66-18.2-.06-1.69,0-3.39-.13-5.08-.55-6.14,2.61-9.89,7.83-12.33,6.14-2.86,12.3-5.68,18.42-8.57,1.94-.92,3.79-2,6-3.18-.79-.38-1.21-.61-1.65-.79a52.87,52.87,0,0,0-15.65-3.29c-3.65-.25-7.33-.28-11-.7A6.27,6.27,0,0,1,91,107.61c.95-5.43,1.87-10.87,2.9-16.29,1.71-9,4.07-17.78,8.28-26a46.19,46.19,0,0,1,11.93-15.28c6-4.8,12.52-4.94,18.69-.42A20.42,20.42,0,0,1,137,53.36c4.62,6,9.08,12,13.58,18.1C151.4,72.63,152.16,73.89,153.16,75.41ZM155.59,124c-1,3-2.57,5.64-2.59,8.85-.07,13.13-.14,26.27-.44,39.4-.14,6.32-.72,12.64-1.22,19-.31,3.86-1,7.7-1.22,11.56a4.8,4.8,0,0,0,2.91,5.06,9.17,9.17,0,0,0,11.76-3.58,16.42,16.42,0,0,0,2.63-8q.18-4.43.29-8.85c.18-7.39.42-14.77.48-22.15.07-7.87.37-15.78-.18-23.61C167.45,133.57,162.49,128.09,155.59,124Zm7.7-21a6.37,6.37,0,0,0-6.6-6.12c-3.59,0-6.57,2.67-6.61,5.94s2.94,6.08,6.62,6.11A6.28,6.28,0,0,0,163.29,102.91Z" transform="translate(-14.24 -13.3)"/><path class="cls-1" d="M253.36,227.18H241.52V13.3h11.84Z" transform="translate(-14.24 -13.3)"/><path class="cls-2" d="M769.63,95.11c-.22-2-.57-4-.65-6-.33-8.14-.64-16.28-.83-24.42-.12-5.42,0-10.84,0-16.26,0-1,.13-1.6,1.4-1.59,10.29.05,20.58,0,30.87,0a10,10,0,0,1,1.05.13v132c-.48,0-1,.09-1.42.09-7.39,0-14.78,0-22.17,0a2.14,2.14,0,0,1-2.16-1.29c-1.85-3.29-3.79-6.52-5.71-9.77-.91-1.54-1.54-1.61-2.44-.13-10.32,17-38.74,18-50.45-1.2a55.9,55.9,0,0,1-7.44-21c-1.85-12.24-1.68-24.43,1.51-36.46,2.2-8.3,6-15.73,12.74-21.35,6.28-5.27,13.67-7,21.72-6.73,9.85.36,17.27,4.89,22.69,13,.26.39.57.73.86,1.1Zm-27.79,36.46c.37,3.26.56,6.54,1.13,9.76.74,4.16,2.26,8,5.7,10.79,7,5.57,17.87,2,20.59-6.62,1.63-5.19,1.79-10.54,1.63-15.92a42.24,42.24,0,0,0-2.17-13.36c-2.87-7.79-11.09-9.28-16.27-7.76-4.35,1.28-6.62,4.64-8.16,8.58C742.47,121.7,742.08,126.6,741.84,131.57ZM633.81,177c0-19.87.05-39.74,0-59.61a58.74,58.74,0,0,0-1-10.76c-2.37-12.34-9.33-20.77-21.71-24.13a44.36,44.36,0,0,0-19.52-.6c-8.29,1.47-15.33,5-20.19,12.21a2.14,2.14,0,0,1-1.65.63c-.34,0-.81-.61-1-1-1.12-3.08-2.23-6.17-3.24-9.28a1.83,1.83,0,0,0-2.07-1.52c-7.28.06-14.56,0-21.84,0-.53,0-1,0-1.58.07v96h33.05c0-5.23,0-10.32,0-15.41.09-11.76.13-23.52.37-35.29a35.53,35.53,0,0,1,2.5-12.47c3-7.63,10-9.47,15.83-8.23,4.55,1,6.69,4.45,7.55,8.6a54.44,54.44,0,0,1,1.2,10.88c.12,16.58.05,33.17.06,49.75,0,.74.08,1.48.12,2.25h33.09Zm-210.07.15c0,1.45.31,2,1.88,1.95q14.61-.1,29.23,0c1.54,0,1.91-.44,1.9-1.93-.06-13.08-.09-26.16,0-39.24,0-4.59.23-9.19.71-13.74.43-4.19,1.39-8.33,4-11.83,3.27-4.43,7.89-5.72,13.08-5.09s7.67,4.2,8.66,8.84a52.85,52.85,0,0,1,1.28,10.7c.14,16.58.06,33.17.07,49.75,0,2.92-.24,2.49,2.57,2.5h28.08c2.11,0,2.11,0,2.11-2.18,0-20,.06-40.07,0-60.1a53.34,53.34,0,0,0-1.1-11.21c-2.59-11.93-9.67-19.85-21.65-23a44.22,44.22,0,0,0-17.41-.8c-8.77,1.2-16.37,4.59-21.65,12.12a2.66,2.66,0,0,1-2,.9c-.44,0-1-.83-1.23-1.4q-1.62-4.38-3.05-8.82A2,2,0,0,0,446.9,83c-7.06.06-14.12.08-21.18,0-1.61,0-2,.47-2,2,.05,15.33,0,30.66,0,46S423.79,161.77,423.74,177.15ZM359.2,50.43C347.74,46.53,336,45,324,47c-11,1.83-18.14,8.05-20.86,19.08a60,60,0,0,0-1.66,15.27,3.13,3.13,0,0,1-1.8,3.11c-3.56,2-7.05,4.21-10.5,6.42a2.77,2.77,0,0,0-1.08,1.92c-.09,4.43,0,8.87-.07,13.3,0,1.16.41,1.53,1.53,1.51,2.9,0,5.8,0,8.7,0,2.52,0,2.52,0,2.52,2.54q0,33.34,0,66.68c0,2.26,0,2.26,2.19,2.26h28.25c2.32,0,2.33,0,2.33-2.26q0-33.59,0-67.17c0-1.58.46-2.1,2-2.08,5.53.07,11.06,0,16.59.06,1.45,0,1.88-.46,1.87-1.89q-.09-10.43,0-20.85c0-1.44-.4-1.88-1.86-1.85-5.64.08-11.28,0-16.91,0-1.28,0-1.83-.35-1.71-1.67.16-1.68.12-3.39.38-5.06.64-4.07,3-6.16,7.06-6,3.52.18,7,.72,10.54,1.22,1.05.14,1.62.09,1.87-1.08a29.79,29.79,0,0,1,1-3.11c1.81-5.48,3.63-11,5.49-16.61A6.18,6.18,0,0,0,359.2,50.43ZM689.39,179.05V83h-33v96ZM400.62,84.89c0-1.4-.3-1.89-1.81-1.88q-14.52.1-29.06,0c-1.5,0-2,.39-2,1.91q.06,46.16,0,92.3c0,1.4.35,1.88,1.84,1.87q14.44-.1,28.9,0c1.67,0,2.11-.42,2.1-2.09-.07-15.33,0-30.66,0-46S400.57,100.27,400.62,84.89ZM679.1,73c6.51-1.09,10.39-4.69,11.42-10.71a25.6,25.6,0,0,0,.17-5.4c-.26-5.83-3.48-10.07-9.09-11.67a31.34,31.34,0,0,0-17.31,0A10.75,10.75,0,0,0,656.11,54a29.63,29.63,0,0,0-.15,8.77c.6,4.76,3.56,8,8.1,9.36a70,70,0,0,0,8.15,1.61C675.08,73.44,677.11,73.34,679.1,73Zm-294.69.45c1.8-.16,3.61-.21,5.38-.5,4.87-.8,9-2.79,11-7.68a18.43,18.43,0,0,0,1-8.55c-.41-5.85-3.72-9.93-9.38-11.46a31.39,31.39,0,0,0-16.52,0,11,11,0,0,0-8.48,8.85,27.85,27.85,0,0,0-.47,6.51c.19,5.57,3.24,9.74,8.56,11.37a80.05,80.05,0,0,0,8.78,1.69Z" transform="translate(-14.24 -13.3)"/><path class="cls-3" d="M153.16,75.41c-1-1.52-1.76-2.78-2.63-4-4.5-6.06-9-12.14-13.58-18.1a20.42,20.42,0,0,0-4.14-3.71c-6.17-4.52-12.73-4.38-18.69.42a46.19,46.19,0,0,0-11.93,15.28c-4.21,8.19-6.57,17-8.28,26-1,5.42-2,10.86-2.9,16.29a6.27,6.27,0,0,0,5.48,7.13c3.63.42,7.31.45,11,.7a52.87,52.87,0,0,1,15.65,3.29c.44.18.86.41,1.65.79-2.17,1.16-4,2.26-6,3.18-6.12,2.89-12.28,5.71-18.42,8.57-5.22,2.44-8.38,6.19-7.83,12.33.15,1.69.07,3.39.13,5.08.21,6.07.38,12.14.66,18.2.37,8,.69,16,1.28,23.91a108.55,108.55,0,0,0,1.73,11.32c.55,3-.08,4.17-2.58,5.89s-5.05,1.49-7.71,1.39a2.76,2.76,0,0,1-1.4-.71,17.15,17.15,0,0,1-6.51-12.78c-.32-6,0-12,0-18,0-7.48.38-15-.26-22.45-.74-8.53-5.21-10.05-12.4-9.25A24.86,24.86,0,0,0,59.28,148c-5.11,2.06-10.14,4.33-15.27,6.35a16.86,16.86,0,0,1-5.24,1.15c-3.88.18-6.6-2.23-7.67-6.47-.9-3.53.18-6.25,3.9-7.85,8.31-3.59,16.75-6.87,25.14-10.29a57,57,0,0,0,5.26-2.26c6.19-3.25,9-8.66,10.08-15.38q3.7-22.05,7.88-44a67.11,67.11,0,0,1,5.85-18c6.72-13.18,20.91-21.37,35.53-20.18A30.47,30.47,0,0,1,145,41.1,36.17,36.17,0,0,1,155.2,66,20.87,20.87,0,0,1,153.16,75.41Z" transform="translate(-14.24 -13.3)"/><path class="cls-3" d="M155.59,124c6.9,4.13,11.86,9.61,12.42,17.64.55,7.83.25,15.74.18,23.61-.06,7.38-.3,14.76-.48,22.15q-.11,4.42-.29,8.85a16.42,16.42,0,0,1-2.63,8A9.17,9.17,0,0,1,153,207.79a4.8,4.8,0,0,1-2.91-5.06c.27-3.86.91-7.7,1.22-11.56.5-6.32,1.08-12.64,1.22-19,.3-13.13.37-26.27.44-39.4C153,129.6,154.57,127,155.59,124Z" transform="translate(-14.24 -13.3)"/><path class="cls-3" d="M163.29,102.91a6.28,6.28,0,0,1-6.59,5.93c-3.68,0-6.67-2.79-6.62-6.11s3-6,6.61-5.94A6.37,6.37,0,0,1,163.29,102.91Z" transform="translate(-14.24 -13.3)"/><text class="cls-4" transform="translate(287.63 197.34)">Powered by Diptimate Consultants Pvt Ltd</text></svg>