<svg xmlns="http://www.w3.org/2000/svg" viewBox="0 0 1536 1536" width="24" height="24">
	<style>
		tspan { white-space:pre }
		.shp0 { fill: #fb8133 } 
	</style>
	<g id="Capa 1">
		<path id="&lt;Path&gt;" class="shp0" d="M1289.86 834.2C1289.86 821.85 1279.85 811.84 1267.51 811.84C1255.16 811.84 1245.16 821.85 1245.16 834.2C1245.16 849.85 1232.42 862.58 1216.77 862.58C1201.13 862.58 1188.39 849.85 1188.39 834.2C1188.39 821.85 1178.38 811.84 1166.04 811.84C1153.69 811.84 1143.68 821.85 1143.68 834.2C1143.68 874.5 1176.47 907.28 1216.77 907.28C1257.07 907.28 1289.86 874.49 1289.86 834.2Z" />
		<path id="&lt;Compound Path&gt;" fill-rule="evenodd" class="shp0" d="M1536 895.89L1536 1000.21C1536 1037.06 1512.42 1069.37 1477.33 1080.62L1375.97 1113.09C1370.34 1114.89 1365.51 1118.87 1362.38 1124.28C1318.88 1199.45 1251.57 1261.49 1162.27 1308.71L1130.66 1476.08C1125.77 1501.91 1103.14 1520.66 1076.86 1520.66L971.3 1520.66C945.02 1520.66 922.39 1501.92 917.5 1476.09L901.22 1390.04C856.36 1396.37 810.34 1399.58 764.26 1399.58C730.67 1399.58 697.45 1397.86 665.36 1394.46L649.91 1476.09C645.02 1501.91 622.4 1520.66 596.12 1520.66L490.56 1520.66C464.27 1520.66 441.65 1501.91 436.76 1476.09L406.37 1318.24C332.73 1278.15 274.96 1224.85 234.61 1159.75C190.85 1089.14 168.66 1006.14 168.66 913.06C168.66 900.55 169.08 888.26 169.84 876.15C169.84 876.16 169.84 876.16 169.84 876.17C165.96 875.81 161.9 875.4 157.69 874.93C153.5 884.06 148.05 892.91 141.36 901.29C99.01 954.4 54.92 964.53 27.46 964.53C25.71 964.53 24.03 964.49 22.43 964.42C9.9 963.84 0 953.61 0 941.07L0 940.96C0 928.25 10.18 918.04 22.88 917.61C44.59 916.87 78.02 909 106.4 873.41C107.99 871.42 109.44 869.43 110.76 867.45C62.74 857.14 33.8 840.73 22.54 817.53C15.87 803.78 12.39 781.48 33.72 753.3C48.43 733.86 69.62 724.41 91.89 727.39C120.16 731.16 146.8 754.43 159.77 786.67C165.65 801.28 168.35 816.34 167.96 831.27C170.1 831.49 172.25 831.68 174.41 831.87L174.41 831.87C194.67 693.55 268.28 584.63 390.31 514.04C401 507.86 414.68 511.51 420.86 522.2C427.04 532.88 423.38 546.56 412.7 552.74C349.76 589.15 300.88 636.87 267.41 694.58C231.55 756.43 213.36 829.93 213.36 913.06C213.36 1077.58 288.75 1204.79 431.38 1280.93C440.84 1285.98 447.41 1294.88 449.42 1305.34L480.68 1467.71C481.59 1472.51 485.74 1475.95 490.56 1475.95L596.12 1475.95C600.94 1475.95 605.09 1472.51 605.99 1467.78L623.07 1377.5C626.49 1359.45 643.52 1346.99 661.81 1349.09C694.88 1352.93 729.35 1354.88 764.26 1354.88C811.19 1354.88 858.04 1351.4 903.51 1344.52C922.38 1341.66 939.92 1354.08 943.46 1372.77L961.44 1467.78C962.33 1472.51 966.48 1475.95 971.3 1475.95L1076.87 1475.95C1081.69 1475.95 1085.84 1472.51 1086.73 1467.78L1119.2 1295.87C1121.21 1285.21 1127.91 1276.21 1137.58 1271.18C1221.25 1227.68 1283.86 1170.72 1323.69 1101.89C1332.39 1086.85 1346.12 1075.71 1362.33 1070.51L1463.7 1038.04C1480.21 1032.75 1491.3 1017.56 1491.3 1000.22L1491.3 895.9C1491.3 878.56 1480.21 863.37 1463.7 858.08L1400.78 837.92C1378.91 830.91 1361.71 813.58 1354.79 791.55C1342.99 754.04 1325.18 718.82 1301.85 686.86C1296.1 678.97 1289.99 671.27 1283.55 663.75C1269.62 701.4 1252.01 726.48 1231 738.38C1212.42 748.9 1187.13 754.87 1159.7 754.87C1123.24 754.87 1083 744.34 1049.67 719.96C1021.39 699.26 1001.44 671.23 990.39 636.62C978.09 598.13 977.38 552.37 988.28 500.63C988.49 499.65 988.75 498.68 989 497.71C981.07 495.74 973.08 493.87 965.05 492.13C959.03 490.82 952.91 489.56 946.75 488.37C935.48 505.43 922.5 521.49 907.79 536.2C891.17 552.82 873.09 567.12 853.96 579.09C853.95 579.09 853.94 579.09 853.94 579.09C867.84 582.7 881.63 586.76 895.27 591.32C906.98 595.23 913.3 607.9 909.38 619.61C906.25 628.97 897.54 634.88 888.19 634.88C885.84 634.88 883.45 634.51 881.1 633.72C759.19 592.97 624.91 592.97 503 633.72C491.29 637.64 478.63 631.32 474.71 619.61C470.8 607.9 477.12 595.23 488.83 591.32C502.47 586.76 516.26 582.7 530.16 579.09C530.15 579.09 530.15 579.09 530.14 579.09C511.01 567.12 492.93 552.82 476.31 536.2C418.68 478.57 386.94 401.95 386.94 320.46C386.94 238.96 418.68 162.35 476.31 104.72C533.93 47.09 610.55 15.35 692.05 15.35C773.54 15.35 850.16 47.09 907.79 104.72C930.93 127.86 950.06 154.28 964.65 183.26C970.2 194.28 965.77 207.72 954.74 213.27C943.71 218.83 930.27 214.39 924.72 203.36C912.27 178.65 895.94 156.1 876.17 136.33C826.99 87.15 761.6 60.06 692.05 60.06C622.49 60.06 557.1 87.15 507.92 136.33C458.74 185.51 431.65 250.9 431.65 320.46C431.65 390.02 458.74 455.41 507.92 504.59C535.46 532.13 567.71 552.14 602.08 564.74C661.69 556.37 722.4 556.37 782.01 564.74C816.38 552.14 848.63 532.13 876.17 504.59C922.27 458.49 949.27 397.26 952.18 332.19C952.73 319.85 963.21 310.25 975.51 310.86C987.85 311.41 997.39 321.85 996.84 334.19C995.07 373.76 985.63 412.1 969.48 447.4C971.15 447.75 972.87 448.07 974.54 448.44C988.36 451.44 1002.1 454.78 1015.54 458.39C1019.63 455.34 1024.04 452.68 1028.76 450.52C1228.16 359.24 1265 378.53 1277.1 384.88C1299.58 396.65 1310.96 430.05 1311.9 487.01C1312.55 526.82 1307.51 572.91 1298.22 613.62C1312.73 628.5 1326.01 644.13 1337.95 660.49C1364.16 696.4 1384.17 735.98 1397.43 778.13C1400.01 786.33 1406.36 792.76 1414.42 795.34L1477.33 815.5C1512.42 826.74 1536 859.04 1536 895.89ZM1298.22 613.62C1298.22 613.63 1298.22 613.63 1298.22 613.63C1298.22 613.63 1298.22 613.63 1298.22 613.62C1298.22 613.62 1298.22 613.62 1298.22 613.62ZM1255.88 424.27C1254.08 423.57 1251.39 423.19 1247.77 423.19C1223.8 423.19 1159.28 439.94 1047.37 491.17C1039.46 494.79 1033.72 501.77 1032.02 509.85C1032.02 509.85 1032.02 509.85 1032.02 509.85C1015.09 590.23 1030.31 650.41 1076.06 683.87C1121.75 717.29 1182.6 714.41 1208.96 699.48C1232.15 686.34 1255.23 623.4 1263.83 549.82C1272.52 475.57 1263.07 431.94 1255.88 424.27ZM122.97 824.43C122.42 815.21 120.09 807.81 118.29 803.35C110.66 784.39 96.26 773.08 85.98 771.7C85.29 771.61 84.54 771.55 83.73 771.55C79.91 771.55 74.86 773.03 69.37 780.28C65.91 784.85 60.45 793.24 62.76 798.01C67.98 808.77 92.02 818.02 122.97 824.43Z" />
	</g>
</svg>